<?xml version="1.0" encoding="UTF-8" standalone="no"?>
<svg
   xmlns:dc="http://purl.org/dc/elements/1.1/"
   xmlns:cc="http://creativecommons.org/ns#"
   xmlns:rdf="http://www.w3.org/1999/02/22-rdf-syntax-ns#"
   xmlns:svg="http://www.w3.org/2000/svg"
   xmlns="http://www.w3.org/2000/svg"
   xmlns:sodipodi="http://sodipodi.sourceforge.net/DTD/sodipodi-0.dtd"
   xmlns:inkscape="http://www.inkscape.org/namespaces/inkscape"
   role="img"
   viewBox="0 0 24 24"
   version="1.1"
   id="svg6"
   sodipodi:docname="mail-dot-ru.svg"
   inkscape:version="1.0.2 (e86c870879, 2021-01-15)">
  <metadata
     id="metadata12">
    <rdf:RDF>
      <cc:Work
         rdf:about="">
        <dc:format>image/svg+xml</dc:format>
        <dc:type
           rdf:resource="http://purl.org/dc/dcmitype/StillImage" />
      </cc:Work>
    </rdf:RDF>
  </metadata>
  <defs
     id="defs10" />
  <sodipodi:namedview
     pagecolor="#ffffff"
     bordercolor="#666666"
     borderopacity="1"
     objecttolerance="10"
     gridtolerance="10"
     guidetolerance="10"
     inkscape:pageopacity="0"
     inkscape:pageshadow="2"
     inkscape:window-width="1587"
     inkscape:window-height="910"
     id="namedview8"
     showgrid="false"
     inkscape:zoom="22.916667"
     inkscape:cx="21.098182"
     inkscape:cy="12"
     inkscape:window-x="0"
     inkscape:window-y="27"
     inkscape:window-maximized="0"
     inkscape:current-layer="svg6" />
  <title
     id="title2">Mail.Ru icon</title>
  <path
     d="M15.61 12c0 1.99-1.62 3.61-3.61 3.61-1.99 0-3.61-1.62-3.61-3.61 0-1.99 1.62-3.61 3.61-3.61 1.99 0 3.61 1.62 3.61 3.61M12 0C5.383 0 0 5.383 0 12s5.383 12 12 12c2.424 0 4.761-.722 6.76-2.087l.034-.024-1.617-1.879-.027.017A9.494 9.494 0 0 1 12 21.54c-5.26 0-9.54-4.28-9.54-9.54 0-5.26 4.28-9.54 9.54-9.54 5.26 0 9.54 4.28 9.54 9.54a9.63 9.63 0 0 1-.225 2.05c-.301 1.239-1.169 1.618-1.82 1.568-.654-.053-1.42-.52-1.426-1.661V12A6.076 6.076 0 0 0 12 5.93 6.076 6.076 0 0 0 5.93 12 6.076 6.076 0 0 0 12 18.07a6.02 6.02 0 0 0 4.3-1.792 3.9 3.9 0 0 0 3.32 1.805c.874 0 1.74-.292 2.437-.821.719-.547 1.256-1.336 1.553-2.285.047-.154.135-.504.135-.507l.002-.013c.175-.76.253-1.52.253-2.457 0-6.617-5.383-12-12-12"
     id="path4"
     style="fill:#008080" />
</svg>
